<?xml version="1.0" encoding="UTF-8"?>
<svg width="1200pt" height="1200pt" version="1.1" viewBox="0 0 1200 1200" xmlns="http://www.w3.org/2000/svg">
 <g fill="#fff">
  <path d="m812.81 1026.4c-6.375 0-12.75-0.75-19.125-2.0625-24.75-5.4375-46.125-21-58.875-42.938-8.25-13.875-12.562-29.625-12.562-45.375 0-28.125 13.875-54.938 36.938-72 47.625-34.5 126.75-100.5 155.44-175.5-129.75-13.5-231.19-123.56-231.19-256.88 0-70.5 27.938-136.31 78.375-185.25 50.438-49.125 117.56-75 187.69-72.75 138.19 4.3125 250.5 124.5 250.5 268.31 0 163.69-63 321.38-172.88 432.38-47.812 48.375-102.94 94.125-163.5 136.12-14.812 10.5-32.625 15.938-50.812 15.938zm129-811.88c-57 0-110.44 21.75-151.5 61.5-42.562 41.25-66 96.75-66 156 0 119.81 97.5 217.5 217.5 217.5 6.1875 0 12 2.8125 15.938 7.6875s5.25 11.25 3.9375 17.25c-21 92.812-108.56 172.5-178.5 222.94-12.562 9.1875-20.062 23.812-20.062 39 0 8.4375 2.4375 17.062 6.9375 24.75 7.125 12.188 18.75 20.625 32.438 23.625 13.312 3 26.812 0.1875 37.875-7.5 58.688-40.688 111.94-84.75 157.88-131.44 102.38-103.5 161.06-250.5 161.06-403.69 0-121.88-94.5-223.88-210.75-227.25-2.25-0.375-4.5-0.375-6.75-0.375z"/>
  <path d="m129.19 1026.4c-6.375 0-12.75-0.75-19.125-2.0625-24.75-5.4375-46.125-21-58.875-42.938-8.25-13.875-12.562-29.625-12.562-45.375 0-28.125 13.875-54.938 36.938-72 47.625-34.5 126.75-100.5 155.44-175.5-129.56-13.312-231-123.38-231-256.69 0-70.5 27.938-136.31 78.375-185.25 50.438-49.125 117.56-75 187.69-72.75 138 4.125 250.31 124.5 250.31 268.12 0 163.69-63 321.38-172.88 432.38-47.812 48.375-102.75 94.125-163.5 136.12-14.812 10.5-32.625 15.938-50.812 15.938zm129-811.88c-57 0-110.44 21.75-151.5 61.5-42.562 41.25-66 96.75-66 156 0 119.81 97.5 217.5 217.5 217.5 6.1875 0 12 2.8125 15.938 7.6875s5.25 11.25 3.9375 17.25c-21 92.812-108.56 172.5-178.5 222.94-12.562 9.1875-20.062 23.812-20.062 39 0 8.4375 2.4375 17.062 6.9375 24.75 7.125 12.188 18.75 20.625 32.438 23.625 13.312 3 26.812 0.1875 37.875-7.5 58.875-40.688 111.94-84.938 157.88-131.44 102.38-103.5 161.06-250.5 161.06-403.69 0-121.88-94.5-223.88-210.75-227.25-2.25-0.375-4.5-0.375-6.75-0.375z"/>
 </g>
</svg>
